<?xml version="1.0" encoding="UTF-8"?>
<svg width="28px" height="28px" viewBox="0 0 28 28" version="1.1" xmlns="http://www.w3.org/2000/svg" xmlns:xlink="http://www.w3.org/1999/xlink">
    <!-- Generator: Sketch 45.1 (43504) - http://www.bohemiancoding.com/sketch -->
    <title>Shape</title>
    <desc>Created with Sketch.</desc>
    <defs>
        <linearGradient x1="100%" y1="50%" x2="0%" y2="50%" id="linearGradient-1">
            <stop stop-color="#65B9B9" offset="0%"></stop>
            <stop stop-color="#86D5CF" offset="100%"></stop>
        </linearGradient>
    </defs>
    <g id="Symbols" stroke="none" stroke-width="1" fill="none" fill-rule="evenodd">
        <g id="ATOM/Icon/ticks" fill-rule="nonzero" fill="url(#linearGradient-1)">
            <path d="M14,0 C6.22222222,0 0,6.22222222 0,14 C0,21.7777778 6.22222222,28 14,28 C21.7777778,28 28,21.7777778 28,14 C28,6.22222222 21.7777778,0 14,0 Z M21.3111111,10.4222222 L12.7555556,19.7555556 C12.4444444,20.0666667 11.9777778,20.2222222 11.6666667,20.2222222 C11.3555556,20.2222222 10.8888889,20.0666667 10.5777778,19.7555556 L6.68888889,15.5555556 C6.06666667,14.9333333 6.22222222,14 6.84444444,13.3777778 C7.46666667,12.7555556 8.4,12.9111111 9.02222222,13.5333333 L11.6666667,16.4888889 L19.1333333,8.4 C19.7555556,7.77777778 20.6888889,7.77777778 21.3111111,8.24444444 C21.9333333,8.71111111 21.9333333,9.8 21.3111111,10.4222222 Z" id="Shape"></path>
        </g>
    </g>
</svg>