<?xml version="1.0" encoding="UTF-8"?>
<svg width="43px" height="54px" viewBox="0 0 43 54" version="1.1" xmlns="http://www.w3.org/2000/svg" xmlns:xlink="http://www.w3.org/1999/xlink">
    <!-- Generator: Sketch 45.1 (43504) - http://www.bohemiancoding.com/sketch -->
    <title>noun_1155212_FFFFFF</title>
    <desc>Created with Sketch.</desc>
    <defs>
        <linearGradient x1="100%" y1="50%" x2="0%" y2="50%" id="linearGradient-1">
            <stop stop-color="#65B9B9" offset="0%"></stop>
            <stop stop-color="#86D5CF" offset="100%"></stop>
        </linearGradient>
    </defs>
    <g id="UI-Desktop-+-mobile" stroke="none" stroke-width="1" fill="none" fill-rule="evenodd">
        <g id="01---ENGIE---Depex---Desktop-UI---Landing-Page" transform="translate(-293.000000, -1975.000000)" stroke="url(#linearGradient-1)" fill-rule="nonzero" fill="url(#linearGradient-1)">
            <g id="Group-7" transform="translate(130.000000, 1920.000000)">
                <g id="noun_1155212_FFFFFF" transform="translate(164.000000, 56.000000)">
                    <path d="M31.0797826,19.6613793 L9.92021739,19.6613793 C4.5054256,19.6613793 0.115869565,24.076778 0.115869565,29.5234483 L0.115869565,42.0751724 C0.115869565,47.5218427 4.5054256,51.9372414 9.92021739,51.9372414 L31.0797826,51.9372414 C33.6800573,51.9372414 36.1738316,50.898205 38.0125034,49.0487083 C39.8511753,47.1992116 40.8841304,44.6907557 40.8841304,42.0751724 L40.8841304,29.5234483 C40.8783113,25.3642909 38.2790703,21.6558711 34.3865217,20.2531034 L34.3865217,14.022069 C34.3873263,7.91156172 30.4395348,2.50978915 24.6412048,0.687528563 C18.8428748,-1.13473203 12.5400575,1.04554738 9.0823913,6.06965517 C8.88052143,6.3316013 8.83878615,6.68420405 8.9738699,6.98650416 C9.10895365,7.28880427 9.39881736,7.49148113 9.72758281,7.51351103 C10.0563483,7.53554094 10.370377,7.37332969 10.5441304,7.09172414 C13.5566442,2.70908593 19.0522674,0.805952988 24.1084355,2.39440871 C29.1646035,3.98286444 32.6065745,8.69384961 32.603913,14.022069 L32.603913,19.7958621 C32.1001277,19.7111682 31.590533,19.6662037 31.0797826,19.6613793 Z M39.1015217,29.5234483 L39.1015217,42.0751724 C39.1015217,46.531539 35.5100668,50.1441379 31.0797826,50.1441379 L9.92021739,50.1441379 C5.4899332,50.1441379 1.89847826,46.531539 1.89847826,42.0751724 L1.89847826,29.5234483 C1.89847826,25.0670817 5.4899332,21.4544828 9.92021739,21.4544828 L31.0797826,21.4544828 C35.5100668,21.4544828 39.1015217,25.0670817 39.1015217,29.5234483 Z" id="Shape"></path>
                </g>
            </g>
        </g>
    </g>
</svg>