<?xml version="1.0" encoding="UTF-8"?>
<svg width="44px" height="59px" viewBox="0 0 44 59" version="1.1" xmlns="http://www.w3.org/2000/svg" xmlns:xlink="http://www.w3.org/1999/xlink">
    <!-- Generator: Sketch 45.1 (43504) - http://www.bohemiancoding.com/sketch -->
    <title>noun_658486_FFFFFF</title>
    <desc>Created with Sketch.</desc>
    <defs>
        <linearGradient x1="100%" y1="50%" x2="0%" y2="50%" id="linearGradient-1">
            <stop stop-color="#65B9B9" offset="0%"></stop>
            <stop stop-color="#86D5CF" offset="100%"></stop>
        </linearGradient>
    </defs>
    <g id="UI-Desktop-+-mobile" stroke="none" stroke-width="1" fill="none" fill-rule="evenodd">
        <g id="01---ENGIE---Depex---Desktop-UI---Landing-Page" transform="translate(-696.000000, -1974.000000)" stroke="url(#linearGradient-1)" fill-rule="nonzero" fill="url(#linearGradient-1)">
            <g id="Group-6" transform="translate(534.000000, 1920.000000)">
                <g id="noun_658486_FFFFFF" transform="translate(163.000000, 54.000000)">
                    <path d="M0.0581258805,42.0432302 L0.0581258805,55.581355 C0.0581258805,56.3760312 0.450258686,57.1177869 1.10612683,57.5663104 C1.51127289,57.843059 1.98495544,57.9853373 2.46124064,57.9853373 C2.7562078,57.9853373 3.05291005,57.9306816 3.3357315,57.8205027 L13.9788405,53.6649361 C15.9863522,55.6021762 18.2723477,56.6952898 20.7179724,56.6952898 C23.1878886,56.6952898 25.4947052,55.581355 27.5160978,53.6076777 L38.3058228,57.8205027 C38.5886442,57.9306816 38.8853465,57.9853373 39.1803137,57.9853373 C39.6565989,57.9853373 40.1302814,57.843059 40.5354275,57.5663104 C41.1912956,57.1177869 41.5834284,56.3760312 41.5834284,55.581355 L41.5834284,42.0432302 C41.5834284,38.2520347 38.7231146,35.1210451 35.0473033,34.6837996 C35.2503101,32.807288 35.3578863,30.8579021 35.3578863,28.8512579 C35.3578863,13.7324562 21.8640066,1.72555786 21.2896882,1.22151104 L20.7179724,0.720066878 L20.1462567,1.22151104 C19.5719383,1.72555786 6.07805849,13.7324562 6.07805849,28.8512579 C6.07805849,30.8691803 6.18736985,32.8289768 6.39211175,34.7150315 C2.81520123,35.2416346 0.0581258805,38.3223063 0.0581258805,42.0432302 Z M39.8491951,42.0432302 L39.8491951,55.581355 C39.8491951,55.8060506 39.7424863,56.0073223 39.5576981,56.1339846 C39.3729099,56.260647 39.1464792,56.2866735 38.9373995,56.2042562 L28.7671055,52.2334778 C31.7037638,48.6175275 33.8813155,43.0426483 34.8304157,36.4032846 C37.6516898,36.7338214 39.8491951,39.135201 39.8491951,42.0432302 Z M20.71884,3.05985046 C23.2885244,5.52889905 33.623653,16.2448823 33.623653,28.8512579 C33.623653,43.2482577 27.8344888,54.9610564 20.71884,54.9610564 C13.6031911,54.9610564 7.8131594,43.2482577 7.8131594,28.8512579 C7.8131594,16.2457498 18.1491555,5.52889905 20.71884,3.05985046 Z M6.61160202,36.4345165 C7.56851017,43.097304 9.76341282,48.6851964 12.7200248,52.2942063 L2.70502232,56.2042562 C2.49507511,56.2866735 2.26951199,56.2597795 2.08472374,56.1339846 C1.8999355,56.0073223 1.79322679,55.8060506 1.79322679,55.581355 L1.79322679,42.0432302 C1.79322679,39.2046051 3.88836114,36.8526758 6.61160202,36.4345165 Z" id="Shape"></path>
                    <path d="M29.4732916,23.16967 C29.4732916,18.3426193 25.5458907,14.4152184 20.71884,14.4152184 C15.8917892,14.4152184 11.9643883,18.3426193 11.9643883,23.16967 C11.9643883,27.9967207 15.8917892,31.9241216 20.71884,31.9241216 C25.5458907,31.9241216 29.4732916,27.9967207 29.4732916,23.16967 Z M13.6994892,23.16967 C13.6994892,19.2995274 16.8486974,16.1503193 20.71884,16.1503193 C24.5889825,16.1503193 27.7381907,19.2995274 27.7381907,23.16967 C27.7381907,27.0398126 24.5889825,30.1890207 20.71884,30.1890207 C16.8486974,30.1890207 13.6994892,27.0398126 13.6994892,23.16967 Z" id="Shape"></path>
                </g>
            </g>
        </g>
    </g>
</svg>