<?xml version="1.0" encoding="UTF-8"?>
<svg width="46px" height="46px" viewBox="0 0 46 46" version="1.1" xmlns="http://www.w3.org/2000/svg" xmlns:xlink="http://www.w3.org/1999/xlink">
    <!-- Generator: Sketch 45.1 (43504) - http://www.bohemiancoding.com/sketch -->
    <title>noun_1038135_FFFFFF</title>
    <desc>Created with Sketch.</desc>
    <defs>
        <linearGradient x1="100%" y1="50%" x2="0%" y2="50%" id="linearGradient-1">
            <stop stop-color="#65B9B9" offset="0%"></stop>
            <stop stop-color="#86D5CF" offset="100%"></stop>
        </linearGradient>
    </defs>
    <g id="UI-Desktop-+-mobile" stroke="none" stroke-width="1" fill="none" fill-rule="evenodd">
        <g id="01---ENGIE---Depex---Desktop-UI---Landing-Page" transform="translate(-1105.000000, -1981.000000)" fill-rule="nonzero" fill="url(#linearGradient-1)">
            <g id="Group" transform="translate(939.000000, 1920.000000)">
                <g id="noun_1038135_FFFFFF" transform="translate(166.000000, 61.000000)">
                    <path d="M45.4894687,0.6003 C45.1980924,0.3059 44.7724099,0.19435 44.3763203,0.3059 C43.1186218,0.66355 13.4744995,9.1264 7.26909524,15.3962 C4.11972736,18.57825 2.38626611,22.80795 2.38626611,27.30675 C2.38626611,31.2662 3.73160504,35.01405 6.20033613,38.0259 L0.511669468,43.7736 C0.0666377218,44.22325 0.0666377218,44.95005 0.511669468,45.3997 C0.733616246,45.62395 1.02499253,45.73665 1.31636881,45.73665 C1.6077451,45.73665 1.89912138,45.62395 2.12106816,45.3997 L7.77900373,39.68305 C10.8646331,42.55805 14.8357731,44.14965 19.0573147,44.14965 C23.5099085,44.14965 27.6961662,42.3982 30.8443959,39.21615 C37.048662,32.9475 45.4268683,2.99575 45.7797068,1.72385 C45.8923875,1.32365 45.780845,0.89355 45.4894687,0.6003 Z M29.2361354,37.59005 C26.5170028,40.3374 22.903254,41.84965 19.0584528,41.84965 C15.444704,41.84965 12.0437965,40.4984 9.38954062,38.05695 L14.2814753,33.11425 C14.4226106,33.1775 14.5774043,33.2166 14.7424416,33.2166 L24.9861391,33.2166 C25.6155574,33.2166 26.1243277,32.70255 26.1243277,32.0666 C26.1243277,31.43065 25.6155574,30.9166 24.9861391,30.9166 L16.4554155,30.9166 L27.0713007,20.19055 C27.5163324,19.7409 27.5163324,19.0141 27.0713007,18.56445 C26.6262689,18.1148 25.9069337,18.1148 25.461902,18.56445 L22.7097619,21.34515 L22.7097619,14.8166 C22.7097619,14.1818 22.1998534,13.6666 21.5715733,13.6666 C20.9432932,13.6666 20.4333847,14.1818 20.4333847,14.8166 L20.4333847,23.64515 L7.8222549,36.38715 C5.77920635,33.8169 4.66378151,30.64865 4.66378151,27.3056 C4.66378151,23.4209 6.16049953,19.7685 8.87963212,17.02115 C13.7943305,12.05545 36.1950205,5.12555 43.0161849,3.0981 C41.0106965,9.9912 34.1508338,32.62435 29.2361354,37.59005 Z" id="Shape"></path>
                </g>
            </g>
        </g>
    </g>
</svg>